<mxGraphModel dx="763" dy="488" grid="1" gridSize="10" guides="1" 
tooltips="1" connect="1" arrows="1" fold="1" page="1" pageScale="1" 
pageWidth="850" pageHeight="1100" math="0" shadow="0">
  <root>
    <mxCell id="0" />
    <mxCell id="1" parent="0" />
    <mxCell id="Ym7t1ATGtXAp2bRJXb0Z-1" value="On-Premise" 
style="points=[[0,0],[0.25,0],[0.5,0],[0.75,0],[1,0],[1,0.25],[1,0.5],[1,0.75],[1,1],[0.75,1],[0.5,1],[0.25,1],[0,1],[0,0.75],[0,0.5],[0,0.25]];outlineConnect=0;gradientColor=none;html=1;whiteSpace=wrap;fontSize=12;fontStyle=0;container=1;pointerEvents=0;collapsible=0;recursiveResize=0;shape=mxgraph.aws4.group;grIcon=mxgraph.aws4.group_corporate_data_center;strokeColor=#5A6C86;fillColor=none;verticalAlign=top;align=left;spacingLeft=30;fontColor=#5A6C86;dashed=0;fixDash=0;dropTarget=1;" 
vertex="1" parent="1">
      <mxGeometry x="160" y="130" width="110" height="190" as="geometry" 
/>
    </mxCell>
    <mxCell id="Ym7t1ATGtXAp2bRJXb0Z-2" value="" 
style="sketch=0;outlineConnect=0;fontColor=#232F3E;gradientColor=none;fillColor=#232F3D;strokeColor=none;dashed=0;verticalLabelPosition=bottom;verticalAlign=top;align=center;html=1;fontSize=12;fontStyle=0;aspect=fixed;pointerEvents=1;shape=mxgraph.aws4.traditional_server;" 
vertex="1" parent="Ym7t1ATGtXAp2bRJXb0Z-1">
      <mxGeometry x="59" y="51" width="23.08" height="40" as="geometry" />
    </mxCell>
    <mxCell id="Ym7t1ATGtXAp2bRJXb0Z-4" value="" 
style="sketch=0;outlineConnect=0;fontColor=#232F3E;gradientColor=none;fillColor=#232F3D;strokeColor=none;dashed=0;verticalLabelPosition=bottom;verticalAlign=top;align=center;html=1;fontSize=12;fontStyle=0;aspect=fixed;pointerEvents=1;shape=mxgraph.aws4.traditional_server;" 
vertex="1" parent="Ym7t1ATGtXAp2bRJXb0Z-1">
      <mxGeometry x="59.000000000000014" y="115" width="23.08" height="40" 
as="geometry" />
    </mxCell>
    <mxCell id="Ym7t1ATGtXAp2bRJXb0Z-5" value="" 
style="sketch=0;points=[[0,0,0],[0.25,0,0],[0.5,0,0],[0.75,0,0],[1,0,0],[0,1,0],[0.25,1,0],[0.5,1,0],[0.75,1,0],[1,1,0],[0,0.25,0],[0,0.5,0],[0,0.75,0],[1,0.25,0],[1,0.5,0],[1,0.75,0]];outlineConnect=0;fontColor=#232F3E;gradientColor=#945DF2;gradientDirection=north;fillColor=#5A30B5;strokeColor=#ffffff;dashed=0;verticalLabelPosition=bottom;verticalAlign=top;align=center;html=1;fontSize=12;fontStyle=0;aspect=fixed;shape=mxgraph.aws4.resourceIcon;resIcon=mxgraph.aws4.direct_connect;" 
vertex="1" parent="1">
      <mxGeometry x="298.46" y="190" width="30" height="30" as="geometry" 
/>
    </mxCell>
    <mxCell id="Ym7t1ATGtXAp2bRJXb0Z-6" value="" 
style="sketch=0;outlineConnect=0;fontColor=#232F3E;gradientColor=none;fillColor=#4D27AA;strokeColor=none;dashed=0;verticalLabelPosition=bottom;verticalAlign=top;align=center;html=1;fontSize=12;fontStyle=0;aspect=fixed;pointerEvents=1;shape=mxgraph.aws4.vpn_connection;" 
vertex="1" parent="1">
      <mxGeometry x="300" y="250" width="26.92" height="30" as="geometry" 
/>
    </mxCell>
    <mxCell id="Ym7t1ATGtXAp2bRJXb0Z-7" value="AWS Cloud" 
style="points=[[0,0],[0.25,0],[0.5,0],[0.75,0],[1,0],[1,0.25],[1,0.5],[1,0.75],[1,1],[0.75,1],[0.5,1],[0.25,1],[0,1],[0,0.75],[0,0.5],[0,0.25]];outlineConnect=0;gradientColor=none;html=1;whiteSpace=wrap;fontSize=12;fontStyle=0;container=1;pointerEvents=0;collapsible=0;recursiveResize=0;shape=mxgraph.aws4.group;grIcon=mxgraph.aws4.group_aws_cloud_alt;strokeColor=#232F3E;fillColor=none;verticalAlign=top;align=left;spacingLeft=30;fontColor=#232F3E;dashed=0;" 
vertex="1" parent="1">
      <mxGeometry x="350" y="130" width="210" height="190" as="geometry" 
/>
    </mxCell>
    <mxCell id="Ym7t1ATGtXAp2bRJXb0Z-8" value="VPC" 
style="points=[[0,0],[0.25,0],[0.5,0],[0.75,0],[1,0],[1,0.25],[1,0.5],[1,0.75],[1,1],[0.75,1],[0.5,1],[0.25,1],[0,1],[0,0.75],[0,0.5],[0,0.25]];outlineConnect=0;gradientColor=none;html=1;whiteSpace=wrap;fontSize=12;fontStyle=0;container=1;pointerEvents=0;collapsible=0;recursiveResize=0;shape=mxgraph.aws4.group;grIcon=mxgraph.aws4.group_vpc;strokeColor=#248814;fillColor=none;verticalAlign=top;align=left;spacingLeft=30;fontColor=#AAB7B8;dashed=0;" 
vertex="1" parent="Ym7t1ATGtXAp2bRJXb0Z-7">
      <mxGeometry x="10" y="40" width="120" height="130" as="geometry" />
    </mxCell>
    <mxCell id="Ym7t1ATGtXAp2bRJXb0Z-9" value="Subnet A" 
style="points=[[0,0],[0.25,0],[0.5,0],[0.75,0],[1,0],[1,0.25],[1,0.5],[1,0.75],[1,1],[0.75,1],[0.5,1],[0.25,1],[0,1],[0,0.75],[0,0.5],[0,0.25]];outlineConnect=0;gradientColor=none;html=1;whiteSpace=wrap;fontSize=12;fontStyle=0;container=1;pointerEvents=0;collapsible=0;recursiveResize=0;shape=mxgraph.aws4.group;grIcon=mxgraph.aws4.group_security_group;grStroke=0;strokeColor=#248814;fillColor=#E9F3E6;verticalAlign=top;align=left;spacingLeft=30;fontColor=#248814;dashed=0;" 
vertex="1" parent="Ym7t1ATGtXAp2bRJXb0Z-8">
      <mxGeometry x="10" y="30" width="90" height="90" as="geometry" />
    </mxCell>
    <mxCell id="Ym7t1ATGtXAp2bRJXb0Z-10" value="" 
style="sketch=0;outlineConnect=0;fontColor=#232F3E;gradientColor=none;fillColor=#D45B07;strokeColor=none;dashed=0;verticalLabelPosition=bottom;verticalAlign=top;align=center;html=1;fontSize=12;fontStyle=0;aspect=fixed;pointerEvents=1;shape=mxgraph.aws4.instance2;" 
vertex="1" parent="Ym7t1ATGtXAp2bRJXb0Z-9">
      <mxGeometry x="30" y="40" width="30" height="30" as="geometry" />
    </mxCell>
    <mxCell id="Ym7t1ATGtXAp2bRJXb0Z-15" value="" 
style="outlineConnect=0;fontColor=#232F3E;gradientColor=none;fillColor=#4D27AA;strokeColor=none;dashed=0;verticalLabelPosition=bottom;verticalAlign=top;align=center;html=1;fontSize=12;fontStyle=0;aspect=fixed;pointerEvents=1;shape=mxgraph.aws4.endpoints;labelBackgroundColor=none;labelBorderColor=none;shadow=0;" 
vertex="1" parent="Ym7t1ATGtXAp2bRJXb0Z-7">
      <mxGeometry x="114" y="110" width="30" height="30" as="geometry" />
    </mxCell>
    <mxCell id="Ym7t1ATGtXAp2bRJXb0Z-16" value="" 
style="edgeStyle=orthogonalEdgeStyle;html=1;endArrow=block;elbow=vertical;startArrow=none;endFill=1;strokeColor=#545B64;rounded=0;targetPerimeterSpacing=4;sourcePerimeterSpacing=4;" 
edge="1" parent="Ym7t1ATGtXAp2bRJXb0Z-7" source="Ym7t1ATGtXAp2bRJXb0Z-15" 
target="Ym7t1ATGtXAp2bRJXb0Z-17">
      <mxGeometry width="100" relative="1" as="geometry">
        <mxPoint x="143" y="124.59000000000002" as="sourcePoint" />
        <mxPoint x="168" y="124.85000000000001" as="targetPoint" />
        <Array as="points" />
      </mxGeometry>
    </mxCell>
    <mxCell id="Ym7t1ATGtXAp2bRJXb0Z-17" value="" 
style="sketch=0;outlineConnect=0;fontColor=#232F3E;gradientColor=none;fillColor=#3F8624;strokeColor=none;dashed=0;verticalLabelPosition=bottom;verticalAlign=top;align=center;html=1;fontSize=12;fontStyle=0;aspect=fixed;pointerEvents=1;shape=mxgraph.aws4.bucket_with_objects;" 
vertex="1" parent="Ym7t1ATGtXAp2bRJXb0Z-7">
      <mxGeometry x="172" y="110" width="28.85" height="30" as="geometry" 
/>
    </mxCell>
    <mxCell id="Ym7t1ATGtXAp2bRJXb0Z-11" value="" 
style="edgeStyle=orthogonalEdgeStyle;html=1;endArrow=none;elbow=vertical;startArrow=none;endFill=0;strokeColor=#545B64;rounded=0;targetPerimeterSpacing=4;sourcePerimeterSpacing=4;" 
edge="1" parent="Ym7t1ATGtXAp2bRJXb0Z-7" source="Ym7t1ATGtXAp2bRJXb0Z-10" 
target="Ym7t1ATGtXAp2bRJXb0Z-15">
      <mxGeometry width="100" relative="1" as="geometry">
        <mxPoint x="79" y="124.61" as="sourcePoint" />
        <mxPoint x="104" y="124.87" as="targetPoint" />
      </mxGeometry>
    </mxCell>
    <mxCell id="Ym7t1ATGtXAp2bRJXb0Z-18" value="" 
style="edgeStyle=orthogonalEdgeStyle;html=1;endArrow=block;elbow=vertical;startArrow=none;endFill=1;strokeColor=#545B64;rounded=0;targetPerimeterSpacing=3;sourcePerimeterSpacing=3;" 
edge="1" parent="1" target="Ym7t1ATGtXAp2bRJXb0Z-9">
      <mxGeometry width="100" relative="1" as="geometry">
        <mxPoint x="328.46" y="264.61" as="sourcePoint" />
        <mxPoint x="353.46" y="264.87" as="targetPoint" />
        <Array as="points">
          <mxPoint x="360" y="265" />
          <mxPoint x="360" y="265" />
        </Array>
      </mxGeometry>
    </mxCell>
    <mxCell id="Ym7t1ATGtXAp2bRJXb0Z-19" 
style="edgeStyle=orthogonalEdgeStyle;rounded=0;orthogonalLoop=1;jettySize=auto;html=1;endArrow=none;endFill=0;targetPerimeterSpacing=3;sourcePerimeterSpacing=3;" 
edge="1" parent="1" source="Ym7t1ATGtXAp2bRJXb0Z-4" 
target="Ym7t1ATGtXAp2bRJXb0Z-6">
      <mxGeometry relative="1" as="geometry" />
    </mxCell>
  </root>
</mxGraphModel>

